<svg xmlns="http://www.w3.org/2000/svg" viewBox="0 0 144 144"><title>btn-social-linkedin</title><rect width="144" height="144" fill="#0065a1"/><path d="M21.35,54H42.71v68.72H21.35V54ZM32,19.82A12.38,12.38,0,1,1,19.65,32.2,12.39,12.39,0,0,1,32,19.82" transform="translate(0 0)" fill="#fff"/><path d="M56.1,54H76.59v9.39h0.29c2.85-5.4,9.82-11.1,20.21-11.1,21.63,0,25.62,14.23,25.62,32.74v37.69H101.36V89.29c0-8-.15-18.22-11.1-18.22-11.11,0-12.82,8.68-12.82,17.64v34H56.1V54Z" transform="translate(0 0)" fill="#fff"/></svg>