<?xml version="1.0" encoding="utf-8"?>
<!-- Generator: Adobe Illustrator 19.2.1, SVG Export Plug-In . SVG Version: 6.00 Build 0)  -->
<svg version="1.1" id="Layer_1" xmlns="http://www.w3.org/2000/svg" xmlns:xlink="http://www.w3.org/1999/xlink" x="0px" y="0px"
	 viewBox="0 0 60 60" style="enable-background:new 0 0 60 60;" xml:space="preserve">
<style type="text/css">
	.st0{opacity:0.6;}
</style>
<g class="st0">
	<path d="M13.7,34.6l0.5-0.6c1.2,1.1,2.4,1.7,4,1.7c1.7,0,2.8-0.9,2.8-2.2l0,0c0-1.2-0.6-1.9-3.2-2.4c-2.7-0.5-3.8-1.5-3.8-3.2l0,0
		c0-1.7,1.5-2.9,3.6-2.9c1.6,0,2.7,0.4,3.8,1.4L21,26.9c-1.1-0.9-2.1-1.3-3.3-1.3c-1.6,0-2.7,0.9-2.7,2.1l0,0c0,1.2,0.6,1.9,3.3,2.4
		c2.6,0.5,3.7,1.5,3.7,3.1l0,0c0,1.8-1.6,3.1-3.7,3.1C16.4,36.4,15,35.8,13.7,34.6z"/>
	<path d="M24.6,25h8v0.8h-7.1v4.4h6.4V31h-6.4v4.5h7.2v0.8h-8.1C24.6,36.3,24.6,25,24.6,25z"/>
	<path d="M34.8,30.7L34.8,30.7c0-3.1,2.3-5.8,5.7-5.8s5.6,2.7,5.6,5.8l0,0c0,3.1-2.3,5.8-5.7,5.8C37.1,36.4,34.8,33.7,34.8,30.7z
		 M45.3,30.7L45.3,30.7c0-2.8-2-5.1-4.8-5.1s-4.8,2.2-4.8,5l0,0c0,2.8,2,5,4.8,5C43.3,35.7,45.3,33.4,45.3,30.7z"/>
</g>
</svg>
