<?xml version="1.0" encoding="utf-8"?>
<!-- Generator: Adobe Illustrator 19.2.1, SVG Export Plug-In . SVG Version: 6.00 Build 0)  -->
<svg version="1.1" id="Layer_1" xmlns="http://www.w3.org/2000/svg" xmlns:xlink="http://www.w3.org/1999/xlink" x="0px" y="0px"
	 viewBox="0 0 60 60" enable-background="new 0 0 60 60" xml:space="preserve">
<rect x="0" y="0" fill="none" width="60" height="60"/>
<g>
	<path fill="#B53B3B" d="M29.5,32.8c0,0.1,0.1,0.3,0.1,0.4c0,0.8-0.3,1.4-0.8,1.9l-1.1,1.1c-0.5,0.5-1.2,0.8-1.9,0.8
		c-1.5,0-2.7-1.2-2.7-2.7c0-0.8,0.3-1.4,0.8-1.9l1.1-1.1c0.5-0.5,1.2-0.8,1.9-0.8c0.2,0,0.3,0,0.4,0.1l0.8-0.8
		c-0.4-0.2-0.8-0.2-1.2-0.2c-1,0-1.9,0.4-2.6,1.1l-1.1,1.1c-0.7,0.7-1.1,1.6-1.1,2.6c0,2,1.7,3.7,3.7,3.7c1,0,1.9-0.4,2.6-1.1
		l1.1-1.1c0.7-0.7,1.1-1.6,1.1-2.6c0-0.4-0.1-0.9-0.2-1.2L29.5,32.8z"/>
	<path fill="#B53B3B" d="M34.3,22c-1,0-1.9,0.4-2.6,1.1l-1.1,1.1c-0.7,0.7-1.1,1.6-1.1,2.6c0,0.4,0.1,0.9,0.2,1.2l0.8-0.8
		c0-0.1-0.1-0.3-0.1-0.4c0-0.8,0.3-1.4,0.8-1.9l1.1-1.1c0.5-0.5,1.2-0.8,1.9-0.8c1.5,0,2.7,1.2,2.7,2.7c0,0.8-0.3,1.4-0.8,1.9
		l-1.1,1.1c-0.5,0.5-1.2,0.8-1.9,0.8c-0.2,0-0.3,0-0.4-0.1L32,30.3c0.4,0.2,0.8,0.2,1.2,0.2c1,0,1.9-0.4,2.6-1.1l1.1-1.1
		c0.7-0.7,1.1-1.6,1.1-2.6C38,23.7,36.3,22,34.3,22z"/>
	<path fill="#B53B3B" d="M27.3,33.2c-0.2,0-0.3-0.1-0.4-0.2c-0.2-0.2-0.2-0.5,0-0.8l5.4-5.4c0.2-0.2,0.5-0.2,0.8,0
		c0.2,0.2,0.2,0.5,0,0.8l-5.4,5.4C27.6,33.2,27.5,33.2,27.3,33.2z"/>
</g>
</svg>
