<?xml version="1.0" encoding="utf-8"?>
<!-- Generator: Adobe Illustrator 19.2.1, SVG Export Plug-In . SVG Version: 6.00 Build 0)  -->
<svg version="1.1" id="Layer_1" xmlns="http://www.w3.org/2000/svg" xmlns:xlink="http://www.w3.org/1999/xlink" x="0px" y="0px"
	 viewBox="0 0 60 60" style="enable-background:new 0 0 60 60;" xml:space="preserve">
<style type="text/css">
	.st0{fill:none;}
	.st1{opacity:0.6;}
</style>
<title>icon-code</title>
<rect class="st0" width="60" height="60"/>
<path class="st1" d="M11.1,31.4L11.1,31.4c0-1.1,0.4-2.2,1.2-3c0.4-0.4,0.8-0.7,1.4-0.9c0.5-0.2,1.1-0.3,1.7-0.3
	c0.4,0,0.7,0,1.1,0.1c0.3,0.1,0.6,0.2,0.9,0.3c0.3,0.1,0.5,0.3,0.7,0.5c0.2,0.2,0.4,0.4,0.6,0.6l-0.8,0.9c-0.3-0.3-0.7-0.6-1.1-0.9
	c-0.4-0.3-0.9-0.4-1.4-0.4c-0.4,0-0.8,0.1-1.2,0.2c-0.4,0.2-0.7,0.4-0.9,0.7c-0.3,0.3-0.5,0.6-0.6,1c-0.2,0.4-0.2,0.8-0.2,1.2l0,0
	c0,0.4,0.1,0.9,0.2,1.2c0.2,0.4,0.4,0.7,0.6,1c0.3,0.3,0.6,0.5,1,0.7c0.4,0.2,0.8,0.3,1.2,0.2c0.5,0,1-0.1,1.4-0.3
	c0.4-0.2,0.8-0.5,1.1-0.9l0.8,0.7c-0.4,0.5-0.9,0.9-1.4,1.2c-0.6,0.3-1.3,0.5-2,0.5c-0.6,0-1.2-0.1-1.7-0.3
	C12.1,34.7,11.1,33.1,11.1,31.4z"/>
<path class="st1" d="M20.2,31.4L20.2,31.4c0-0.6,0.1-1.1,0.3-1.7c0.4-1,1.2-1.9,2.3-2.3c0.6-0.2,1.1-0.3,1.7-0.3
	c0.6,0,1.2,0.1,1.7,0.3c0.5,0.2,1,0.5,1.4,0.9c0.4,0.4,0.7,0.9,0.9,1.4c0.2,0.5,0.3,1.1,0.3,1.7l0,0c0,0.6-0.1,1.1-0.3,1.6
	c-0.2,0.5-0.5,1-0.9,1.4c-0.4,0.4-0.9,0.7-1.4,0.9c-0.5,0.2-1.1,0.3-1.7,0.3c-0.6,0-1.2-0.1-1.7-0.3c-0.5-0.2-1-0.5-1.4-0.9
	c-0.4-0.4-0.7-0.9-0.9-1.4C20.3,32.5,20.2,32,20.2,31.4z M21.5,31.4c0,0.4,0.1,0.9,0.2,1.3c0.1,0.4,0.4,0.7,0.6,1
	c0.3,0.3,0.6,0.5,1,0.7c1.2,0.5,2.5,0.2,3.4-0.7c0.3-0.3,0.5-0.6,0.6-1c0.2-0.4,0.2-0.8,0.2-1.2l0,0c0-0.4-0.1-0.9-0.2-1.2
	c-0.2-0.4-0.4-0.7-0.6-1c-0.3-0.3-0.6-0.5-1-0.7c-0.8-0.3-1.7-0.3-2.5,0c-0.4,0.2-0.7,0.4-1,0.7c-0.3,0.3-0.5,0.6-0.6,1
	C21.6,30.6,21.5,31,21.5,31.4L21.5,31.4L21.5,31.4z"/>
<path class="st1" d="M30.6,31.4L30.6,31.4c0-0.6,0.1-1.2,0.3-1.8c0.2-0.5,0.5-1,0.9-1.4c0.4-0.4,0.8-0.7,1.3-0.9
	c0.5-0.2,1-0.3,1.5-0.3c0.4,0,0.7,0,1,0.1c0.3,0.1,0.6,0.2,0.9,0.4c0.3,0.2,0.5,0.3,0.7,0.5c0.2,0.2,0.4,0.4,0.5,0.7v-5h1.2v11.7
	h-1.2v-1.7c-0.2,0.2-0.4,0.5-0.6,0.7c-0.2,0.2-0.4,0.4-0.7,0.6c-0.3,0.2-0.5,0.3-0.8,0.4c-0.3,0.1-0.7,0.1-1,0.2c-1,0-2-0.4-2.7-1.1
	c-0.4-0.4-0.7-0.8-0.9-1.3C30.7,32.6,30.6,32,30.6,31.4z M31.9,31.4c0,0.5,0.1,0.9,0.2,1.3c0.1,0.4,0.4,0.7,0.6,1
	c0.3,0.3,0.6,0.5,0.9,0.6c0.4,0.1,0.7,0.2,1.1,0.2c0.4,0,0.8-0.1,1.1-0.2c0.4-0.2,0.7-0.4,1-0.7c0.3-0.3,0.5-0.6,0.7-1
	c0.2-0.4,0.3-0.9,0.2-1.3l0,0c0-0.4-0.1-0.9-0.2-1.3c-0.2-0.4-0.4-0.7-0.7-1c-0.3-0.3-0.6-0.5-1-0.6c-0.4-0.2-0.7-0.2-1.1-0.2
	c-0.4,0-0.8,0.1-1.1,0.2c-0.3,0.1-0.7,0.3-0.9,0.6c-0.3,0.3-0.5,0.6-0.6,1C31.9,30.5,31.9,30.9,31.9,31.4L31.9,31.4L31.9,31.4z"/>
<path class="st1" d="M41.2,31.4c0-0.6,0.1-1.1,0.3-1.7c0.2-0.5,0.5-1,0.8-1.4c0.4-0.4,0.8-0.7,1.3-0.9c1-0.5,2.2-0.5,3.2,0
	c0.5,0.2,0.9,0.5,1.2,0.9c0.3,0.4,0.6,0.9,0.8,1.4c0.2,0.6,0.3,1.1,0.3,1.7v0.2c0,0.1,0,0.2,0,0.2h-6.6c0,0.4,0.1,0.8,0.3,1.1
	c0.3,0.6,0.9,1.1,1.5,1.4c0.3,0.1,0.7,0.2,1,0.2c0.5,0,1-0.1,1.5-0.3c0.4-0.2,0.8-0.5,1.1-0.8l0.8,0.7c-0.4,0.5-0.9,0.8-1.4,1.1
	c-1.1,0.5-2.4,0.6-3.6,0.1c-0.5-0.2-0.9-0.5-1.3-0.9c-0.4-0.4-0.7-0.9-0.9-1.4C41.3,32.5,41.2,32,41.2,31.4z M42.4,30.9h5.3
	c0-0.4-0.1-0.7-0.2-1.1c-0.1-0.3-0.3-0.6-0.5-0.9c-0.2-0.3-0.5-0.5-0.8-0.6c-0.3-0.2-0.7-0.2-1.1-0.2c-0.3,0-0.7,0.1-1,0.2
	c-0.3,0.1-0.6,0.3-0.8,0.6c-0.2,0.3-0.4,0.6-0.6,0.9C42.6,30.1,42.5,30.5,42.4,30.9z"/>
</svg>
