<?xml version="1.0" encoding="utf-8"?>
<!-- Generator: Adobe Illustrator 19.2.1, SVG Export Plug-In . SVG Version: 6.00 Build 0)  -->
<svg version="1.1" id="Layer_1" xmlns="http://www.w3.org/2000/svg" xmlns:xlink="http://www.w3.org/1999/xlink" x="0px" y="0px"
	 viewBox="0 0 60 60" style="enable-background:new 0 0 60 60;" xml:space="preserve">
<style type="text/css">
	.st0{fill:none;}
	.st1{opacity:0.6;}
</style>
<title>Untitled-3</title>
<rect class="st0" width="60" height="60"/>
<path class="st1" d="M36.2,16.2c-0.3,0-0.5,0.2-0.5,0.5c0,0,0,0,0,0v5.4c0,0.3,0.2,0.5,0.5,0.5c0,0,0,0,0,0c0.3,0,0.5-0.2,0.5-0.5
	c0,0,0,0,0,0v-5.4C36.7,16.4,36.5,16.2,36.2,16.2C36.2,16.2,36.2,16.2,36.2,16.2z"/>
<path class="st1" d="M23.9,16.2c-0.3,0-0.5,0.2-0.5,0.5c0,0,0,0,0,0v5.4c0,0.3,0.2,0.5,0.5,0.5c0,0,0,0,0,0c0.3,0,0.5-0.2,0.5-0.5
	c0,0,0,0,0,0v-5.4C24.4,16.4,24.2,16.2,23.9,16.2C23.9,16.2,23.9,16.2,23.9,16.2z"/>
<path class="st1" d="M42.3,20.1h-4.6v2.1c0,0.8-0.7,1.5-1.5,1.5c0,0,0,0,0,0c-0.8,0-1.5-0.7-1.5-1.5c0,0,0,0,0,0v-2.1h-9.2v2.1
	c0,0.8-0.7,1.5-1.5,1.5c0,0,0,0,0,0c-0.8,0-1.5-0.7-1.5-1.5c0,0,0,0,0,0v-2.1h-4.6c-0.3,0-0.5,0.2-0.5,0.5c0,0,0,0,0,0v22.7
	c0,0.3,0.2,0.5,0.5,0.5c0,0,0,0,0,0h24.6c0.3,0,0.5-0.2,0.5-0.5c0,0,0,0,0,0V20.6C42.8,20.3,42.6,20.1,42.3,20.1
	C42.3,20.1,42.3,20.1,42.3,20.1z M23.3,42.8h-5.1v-5.1h5.1L23.3,42.8L23.3,42.8z M23.3,36.6h-5.1v-5.1h5.1L23.3,36.6L23.3,36.6z
	 M23.3,30.4h-5.1v-5.1h5.1L23.3,30.4L23.3,30.4z M29.4,42.8h-5.1v-5.1h5.1L29.4,42.8L29.4,42.8z M29.4,36.6h-5.1v-5.1h5.1L29.4,36.6
	L29.4,36.6z M29.4,30.4h-5.1v-5.1h5.1L29.4,30.4L29.4,30.4z M35.6,42.8h-5.1v-5.1h5.1L35.6,42.8L35.6,42.8z M35.6,36.6h-5.1v-5.1
	h5.1L35.6,36.6L35.6,36.6z M35.6,30.4h-5.1v-5.1h5.1L35.6,30.4L35.6,30.4z M41.7,42.8h-5.1v-5.1h5.1L41.7,42.8L41.7,42.8z
	 M41.7,36.6h-5.1v-5.1h5.1L41.7,36.6L41.7,36.6z M41.7,30.4h-5.1v-5.1h5.1L41.7,30.4L41.7,30.4z"/>
</svg>
