<?xml version="1.0" encoding="utf-8"?>
<!-- Generator: Adobe Illustrator 19.2.1, SVG Export Plug-In . SVG Version: 6.00 Build 0)  -->
<svg version="1.1" id="Layer_1" xmlns="http://www.w3.org/2000/svg" xmlns:xlink="http://www.w3.org/1999/xlink" x="0px" y="0px"
	 viewBox="0 0 60 60" style="enable-background:new 0 0 60 60;" xml:space="preserve">
<style type="text/css">
	.st0{fill:none;}
	.st1{opacity:0.6;enable-background:new    ;}
	.st2{opacity:0.6;fill:none;stroke:#000000;stroke-width:2;stroke-miterlimit:10;}
</style>
<rect class="st0" width="60" height="60"/>
<g class="st1">
	<path d="M16,16.8h-1.5v-0.3c0.2,0,0.4,0,0.6-0.1s0.3-0.1,0.5-0.2c0.1-0.1,0.2-0.2,0.3-0.3c0.1-0.1,0.2-0.3,0.2-0.6h0.4V21H16V16.8z
		"/>
</g>
<line class="st2" x1="20.6" y1="18.6" x2="45.4" y2="18.6"/>
<g class="st1">
	<path d="M13.3,28.6c0-0.3,0-0.5,0.1-0.8c0.1-0.2,0.2-0.4,0.4-0.6c0.2-0.2,0.4-0.3,0.6-0.4s0.5-0.1,0.8-0.1c0.3,0,0.5,0,0.7,0.1
		c0.2,0.1,0.4,0.2,0.5,0.3c0.1,0.1,0.3,0.3,0.3,0.5c0.1,0.2,0.1,0.4,0.1,0.6c0,0.3,0,0.5-0.1,0.7c-0.1,0.2-0.2,0.4-0.3,0.5
		c-0.1,0.1-0.3,0.3-0.5,0.4s-0.4,0.2-0.5,0.3c-0.2,0.1-0.4,0.2-0.5,0.3c-0.2,0.1-0.3,0.2-0.5,0.3c-0.1,0.1-0.2,0.1-0.3,0.2
		s-0.2,0.2-0.2,0.3s-0.1,0.2-0.2,0.3c0,0.1-0.1,0.2-0.1,0.4h3.1v0.4h-3.7c0-0.3,0-0.5,0.1-0.7c0.1-0.2,0.2-0.4,0.4-0.6
		c0.2-0.2,0.4-0.4,0.6-0.6c0.2-0.2,0.4-0.3,0.6-0.4c0.2-0.1,0.4-0.2,0.6-0.3c0.2-0.1,0.3-0.2,0.5-0.3c0.1-0.1,0.2-0.3,0.3-0.4
		c0.1-0.2,0.1-0.3,0.1-0.6c0-0.2,0-0.3-0.1-0.5c-0.1-0.1-0.2-0.3-0.3-0.4c-0.1-0.1-0.2-0.2-0.4-0.2c-0.1-0.1-0.3-0.1-0.5-0.1
		c-0.2,0-0.4,0-0.5,0.1s-0.3,0.2-0.4,0.3s-0.2,0.3-0.3,0.4s-0.1,0.4-0.1,0.5H13.3z"/>
</g>
<line class="st2" x1="20.6" y1="30" x2="45.4" y2="30"/>
<g class="st1">
	<path d="M14.5,40.7c0.2,0,0.5,0,0.7,0s0.4-0.1,0.5-0.2c0.1-0.1,0.3-0.2,0.3-0.3s0.1-0.3,0.1-0.5c0-0.2,0-0.3-0.1-0.5
		s-0.2-0.2-0.3-0.3s-0.2-0.1-0.4-0.2c-0.1,0-0.3-0.1-0.5-0.1c-0.2,0-0.3,0-0.5,0.1c-0.1,0.1-0.3,0.1-0.4,0.3
		c-0.1,0.1-0.2,0.2-0.2,0.4s-0.1,0.3-0.1,0.5h-0.5c0-0.3,0-0.5,0.1-0.7c0.1-0.2,0.2-0.4,0.4-0.6c0.2-0.2,0.4-0.3,0.6-0.3
		s0.4-0.1,0.7-0.1c0.2,0,0.4,0,0.6,0.1s0.4,0.1,0.5,0.3s0.3,0.3,0.3,0.4c0.1,0.2,0.1,0.4,0.1,0.6c0,0.3-0.1,0.5-0.2,0.8
		c-0.1,0.2-0.3,0.4-0.6,0.5c0.2,0.1,0.4,0.1,0.5,0.3c0.1,0.1,0.2,0.2,0.3,0.3s0.1,0.3,0.2,0.4c0,0.1,0,0.3,0,0.4
		c0,0.2,0,0.5-0.1,0.7c-0.1,0.2-0.2,0.4-0.4,0.5s-0.3,0.3-0.6,0.4C15.5,43.9,15.3,44,15,44c-0.3,0-0.6,0-0.8-0.1
		c-0.2-0.1-0.4-0.2-0.6-0.3c-0.2-0.1-0.3-0.3-0.4-0.5c-0.1-0.2-0.2-0.5-0.2-0.8h0.5c0,0.4,0.1,0.8,0.4,1s0.6,0.3,1,0.3
		c0.2,0,0.4,0,0.6-0.1c0.2-0.1,0.3-0.2,0.5-0.3c0.1-0.1,0.2-0.3,0.3-0.4c0.1-0.2,0.1-0.3,0.1-0.5c0-0.2-0.1-0.4-0.2-0.6
		c-0.1-0.2-0.2-0.3-0.4-0.4c-0.2-0.1-0.4-0.1-0.6-0.2s-0.5,0-0.7,0V40.7z"/>
</g>
<line class="st2" x1="20.6" y1="41.4" x2="45.4" y2="41.4"/>
</svg>
