<svg xmlns="http://www.w3.org/2000/svg" viewBox="0 0 119.72 20.99"><title>logo-github-gist</title><path d="M15,9.13H8.46a0.31,0.31,0,0,0-.33.29v3.19a0.31,0.31,0,0,0,.33.29H11v4a7.94,7.94,0,0,1-2.17.19c-1.87,0-4.47-.68-4.47-6.41S7.11,4.21,9.65,4.21a10.4,10.4,0,0,1,3.76.57,0.3,0.3,0,0,0,.35-0.29L14.49,1.4a0.37,0.37,0,0,0-.1-0.24c-0.24-.16-1.77-1-5.55-1C4.47,0.13,0,2,0,10.88S5.11,21.14,9.43,21.14a10.54,10.54,0,0,0,5.74-1.54,0.24,0.24,0,0,0,.1-0.23V9.42a0.31,0.31,0,0,0-.33-0.29h0ZM48,0.9H44.32a0.3,0.3,0,0,0-.29.29V8.28H38.29V1.19A0.3,0.3,0,0,0,38,.9H34.3a0.3,0.3,0,0,0-.29.29V20.45a0.32,0.32,0,0,0,.29.29H38a0.3,0.3,0,0,0,.29-0.29V12.21H44l0,8.23a0.3,0.3,0,0,0,.29.29H48a0.3,0.3,0,0,0,.29-0.29V1.19A0.3,0.3,0,0,0,48,.9h0ZM19.4,1.33a2.39,2.39,0,1,0,0,4.78,2.37,2.37,0,0,0,2.36-2.39A2.37,2.37,0,0,0,19.4,1.33Zm2.11,6.15a0.3,0.3,0,0,0-.29-0.29H17.52a0.33,0.33,0,0,0-.29.35V20.26a0.44,0.44,0,0,0,.52.47h3.33a0.38,0.38,0,0,0,.43-0.47V7.48Zm40.77-.28H58.66a0.29,0.29,0,0,0-.29.33V17a4.26,4.26,0,0,1-2.25.68c-1.3,0-1.68-.59-1.68-1.89V7.52a0.3,0.3,0,0,0-.29-0.29H50.42a0.3,0.3,0,0,0-.29.29v8.86c0,3.81,2.13,4.77,5.06,4.77a8.64,8.64,0,0,0,4.37-1.33,6.28,6.28,0,0,0,.14.78,0.31,0.31,0,0,0,.28.16H62.3a0.28,0.28,0,0,0,.29-0.29l0-12.95a0.31,0.31,0,0,0-.33-0.29h0Zm10-.43a7,7,0,0,0-3.5.92V1.16A0.3,0.3,0,0,0,68.48.86H64.79a0.3,0.3,0,0,0-.29.29l0,19.26a0.32,0.32,0,0,0,.33.29h2.57a0.25,0.25,0,0,0,.24-0.14,4.1,4.1,0,0,0,.16-0.9,6.63,6.63,0,0,0,4.37,1.44c3.36,0,5.29-1.7,5.29-7.64s-3.07-6.73-5.15-6.73ZM70.84,17.64A4.21,4.21,0,0,1,68.73,17v-6.1a4.5,4.5,0,0,1,1.87-.59c1.33-.14,2.6.28,2.6,3.41C73.2,17.05,72.63,17.69,70.84,17.64Zm-38.71-.09c-0.16,0-.57.09-1,0.09-1.35,0-1.82-.62-1.82-1.44V10.78h2.76a0.3,0.3,0,0,0,.28-0.33V7.5a0.3,0.3,0,0,0-.28-0.29H29.31V3.55a0.21,0.21,0,0,0-.24-0.23H25.32a0.21,0.21,0,0,0-.24.23V7.31s-1.89.47-2,.49a0.3,0.3,0,0,0-.23.29v2.36a0.31,0.31,0,0,0,.29.33h1.92v5.69c0,4.23,2.95,4.66,5,4.66a7.41,7.41,0,0,0,2.2-.38,0.28,0.28,0,0,0,.16-0.28v-2.6a0.31,0.31,0,0,0-.29-0.33h0Z" transform="translate(0 -0.15)" fill="#434343"/><path d="M88.42,11.79h3.92v6.43a11.12,11.12,0,0,1-4,.54c-4.1,0-5.55-3.52-5.55-8.08s1.46-8.1,5.57-8.1a12.17,12.17,0,0,1,5.25,1.17V2.08A11.25,11.25,0,0,0,88.31,1c-5.6,0-7.41,4.3-7.41,9.65s1.78,9.65,7.41,9.65a13.57,13.57,0,0,0,5.74-1v-9.1H88.42v1.6Zm10.22,6V7.52H97v10c0,2,.93,2.75,2.75,2.75V18.9a0.91,0.91,0,0,1-1.07-1.12v0Zm0.4-14A1.22,1.22,0,0,0,97.8,2.54a1.21,1.21,0,0,0-1.23,1.25A1.22,1.22,0,0,0,97.8,5,1.23,1.23,0,0,0,99,3.79ZM106,12.9c-2.4-.21-2.85-0.77-2.85-1.87s0.53-2.14,3-2.14a10.47,10.47,0,0,1,3.63.58V8a9.29,9.29,0,0,0-3.6-.62c-3.52,0-4.67,1.92-4.67,3.7s0.75,3,4.37,3.33c2.48,0.21,2.83,1,2.83,2.14s-0.7,2.27-3.3,2.27a10.83,10.83,0,0,1-3.73-.58v1.5a12.49,12.49,0,0,0,3.73.62c3.81,0,5-1.92,5-3.86s-0.85-3.25-4.4-3.57h0Zm13.73-4V7.57h-3.87v-4l-1.73.5V7.44l-2.5.7V8.91h2.5v8c0,2.45,1.9,3.41,4,3.41a8.14,8.14,0,0,0,1.1-.08V18.82a6.54,6.54,0,0,1-1,0c-1.55,0-2.4-.62-2.4-2.14V8.93h3.87v0Z" transform="translate(0 -0.15)" fill="#434343"/></svg>