<svg xmlns="http://www.w3.org/2000/svg" viewBox="0 0 144 144"><title>btn-social-twitter</title><rect width="144" height="144" fill="#55acee"/><path d="M120.6,41.85A39.87,39.87,0,0,1,109.15,45a20,20,0,0,0,8.77-11,39.93,39.93,0,0,1-12.66,4.84A20,20,0,0,0,71.27,57,56.62,56.62,0,0,1,30.16,36.15a20,20,0,0,0,6.17,26.63,19.86,19.86,0,0,1-9-2.49c0,0.08,0,.17,0,0.25a20,20,0,0,0,16,19.56,20,20,0,0,1-9,.34A20,20,0,0,0,52.92,94.28a40,40,0,0,1-24.77,8.54,40.6,40.6,0,0,1-4.76-.28,56.45,56.45,0,0,0,30.57,9c36.68,0,56.74-30.39,56.74-56.74q0-1.3-.06-2.58A40.53,40.53,0,0,0,120.6,41.85Z" fill="#fff"/></svg>