<svg xmlns="http://www.w3.org/2000/svg" xmlns:xlink="http://www.w3.org/1999/xlink" viewBox="0 0 600 152.73"><defs><linearGradient id="a" x1="-5324.69" y1="896.5" x2="-5309.76" y2="879.04" gradientTransform="translate(5625.74 -335.69) rotate(4.71)" gradientUnits="userSpaceOnUse"><stop offset="0" stop-color="#f69923"/><stop offset="0.31" stop-color="#f79a23"/><stop offset="0.84" stop-color="#e97826"/></linearGradient><linearGradient id="b" x1="-5435.17" y1="898.43" x2="-5328.67" y2="898.43" gradientTransform="translate(5625.74 -335.69) rotate(4.71)" gradientUnits="userSpaceOnUse"><stop offset="0.32" stop-color="#9e2064"/><stop offset="0.63" stop-color="#c92037"/><stop offset="0.75" stop-color="#cd2335"/><stop offset="1" stop-color="#e97826"/></linearGradient><linearGradient id="c" x1="-5422.31" y1="887.74" x2="-5358.85" y2="887.74" gradientTransform="translate(5625.74 -335.69) rotate(4.71)" gradientUnits="userSpaceOnUse"><stop offset="0" stop-color="#282662"/><stop offset="0.1" stop-color="#662e8d"/><stop offset="0.79" stop-color="#9f2064"/><stop offset="0.95" stop-color="#cd2032"/></linearGradient><linearGradient id="d" x1="-5429.19" y1="899.42" x2="-5322.68" y2="899.42" xlink:href="#b"/><linearGradient id="e" x1="-5421.42" y1="897.98" x2="-5365.45" y2="897.98" xlink:href="#c"/><linearGradient id="f" x1="-5429.19" y1="888.4" x2="-5322.68" y2="888.4" xlink:href="#b"/><linearGradient id="g" x1="-5435.79" y1="888.94" x2="-5329.29" y2="888.94" xlink:href="#b"/><linearGradient id="h" x1="-5429.19" y1="885.12" x2="-5322.68" y2="885.12" xlink:href="#b"/><linearGradient id="i" x1="-5429.19" y1="885.49" x2="-5322.68" y2="885.49" xlink:href="#b"/><linearGradient id="j" x1="-5369.36" y1="885.57" x2="-5345.81" y2="885.57" xlink:href="#b"/></defs><title>sling-slick-logo</title><rect x="436.44" y="-20.51" width="95.56" height="193.75" transform="translate(460.58 -407.85) rotate(90)" fill="#fff"/><rect x="293.89" y="35.13" width="180.65" height="82.47" fill="#fff"/><path d="M419.58,85l1.64-2a11.36,11.36,0,0,0,8.35,3.44c3.27,0,5.4-1.8,5.4-4.09h0c0-2.29-1.15-3.6-6.38-4.58-5.56-1.15-8.18-2.95-8.18-7h0c0-3.76,3.44-6.55,8-6.55a12.52,12.52,0,0,1,8.51,2.95l-1.64,2.13a11.08,11.08,0,0,0-7-2.62c-3.11,0-5.24,1.8-5.24,3.93h0c0,2.29,1.31,3.6,6.55,4.75,5.4,1.15,7.85,3.11,7.85,6.87h0c0,4.09-3.44,6.87-8.35,6.87A16.5,16.5,0,0,1,419.58,85Z" transform="translate(-100)"/><path d="M450.18,64.25H453V86h13.75v2.45H450.35V64.25h-0.16Z" transform="translate(-100)"/><path d="M479,64.25h2.78V88.47H479V64.25Z" transform="translate(-100)"/><path d="M494.69,76.36h0c0-6.87,5.07-12.6,12.27-12.6a12.75,12.75,0,0,1,9.49,3.93l-1.8,2A10.19,10.19,0,0,0,507,66.38c-5.4,0-9.33,4.42-9.33,10h0c0,5.56,4.09,10,9.33,10,3.27,0,5.56-1.31,7.85-3.44l1.8,1.8A12.21,12.21,0,0,1,507,89C499.76,89,494.69,83.4,494.69,76.36Z" transform="translate(-100)"/><path d="M528.24,64.25H531V78.82l13.91-14.56h3.6L538.05,74.89l10.8,13.75h-3.44l-9.33-11.78-5.24,5.24v6.55h-2.78l0.16-24.38h0Z" transform="translate(-100)"/><path d="M574.55,35.13V117.6H393.89V35.13H574.55m7.85-7.85H386v98.18H582.4V27.27h0Z" transform="translate(-100)" fill="#009444"/><rect x="474.55" y="27.27" width="98.18" height="98.18" fill="#009444"/><path d="M615.13,88.47v-2.1L624,78.56q1.39-1.26,2.37-2.26a13.59,13.59,0,0,0,1.57-1.9,7.26,7.26,0,0,0,.87-1.75A5.57,5.57,0,0,0,629,70.9a4.44,4.44,0,0,0-.41-1.93,4.82,4.82,0,0,0-1.06-1.47,4.53,4.53,0,0,0-1.56-.94,5.45,5.45,0,0,0-1.88-.33,6,6,0,0,0-3.59,1.06,13,13,0,0,0-3,3.12l-2-1.46a20.92,20.92,0,0,1,1.7-2.19,9.31,9.31,0,0,1,1.89-1.63,8.22,8.22,0,0,1,2.3-1,10.9,10.9,0,0,1,2.87-.35,8.6,8.6,0,0,1,3,.52,7.33,7.33,0,0,1,2.41,1.45,6.48,6.48,0,0,1,1.57,2.18,6.7,6.7,0,0,1,.56,2.75v0.08a7.88,7.88,0,0,1-.37,2.45,8.79,8.79,0,0,1-1.11,2.22,15.71,15.71,0,0,1-1.91,2.26q-1.16,1.16-2.76,2.55L619.24,86h12.9v2.46h-17Z" transform="translate(-100)" fill="#fff"/><path d="M332.4,77.74V75h7.87V67.27H343V75h7.87v2.76H343v7.72h-2.74V77.74H332.4Z" transform="translate(-100)"/><rect width="600" height="152.73" fill="none"/><line x1="191.01" y1="57.33" x2="200.13" y2="66.45" fill="none"/><path d="M256.21,113.66s-1.44-3.46-7.63-5.66a113.62,113.62,0,0,0-7.08,9.48,67.43,67.43,0,0,0,10.13-1.19l0.36-.09-0.36.09a74.49,74.49,0,0,1-10.22,1.59l3.46,5.45c5.12-.87,8.89-1.89,10.56-2.84C258.86,118.52,256.21,113.66,256.21,113.66Z" transform="translate(-100)" fill="url(#a)"/><path d="M224.35,109.16l0.07,0,0.26-.35,0,0.05Z" transform="translate(-100)" fill="none"/><path d="M213.74,107c0.16-.2.32-0.4,0.49-0.59C214.07,106.61,213.9,106.81,213.74,107Z" transform="translate(-100)" fill="none"/><path d="M178.3,112.35l-0.13,0-0.24.34,0.57,0.86,4.48,0.71,1.27,0.19q2.82,0.43,5.73.83t5.61,0.74q2.83,0.35,5.69.67t5.83,0.59q2.89,0.27,5.76.48l2.07,0.15,3.55,0.21h0.19l-0.36-.54,0.22-.3H218.4l-0.77-.05-2.38-.17-2.68-.21-1.39-.12-4.33-.41q-2.73-.28-5.66-0.62t-5.75-.72q-2.81-.37-5.78-0.8-2.65-.39-5.43-0.82l-0.27,0Q181.19,112.84,178.3,112.35Z" transform="translate(-100)" fill="none"/><path d="M213.63,107.16h0Z" transform="translate(-100)" fill="none"/><path d="M208.41,106l-0.38.48h0l0.77-.93Z" transform="translate(-100)" fill="#be202e"/><path d="M208.41,106l-0.38.48h0l0.77-.93Z" transform="translate(-100)" fill="#be202e" opacity="0.35" style="isolation:isolate"/><path d="M213.63,107.16h0l0.6-.74c-0.17.19-.33,0.38-0.49,0.59l-0.12.15h0Z" transform="translate(-100)" fill="#be202e"/><path d="M213.63,107.16h0l0.6-.74c-0.17.19-.33,0.38-0.49,0.59l-0.12.15h0Z" transform="translate(-100)" fill="#be202e" opacity="0.35" style="isolation:isolate"/><path d="M218.66,118.09l4.8,7.26h0.19c1.65-.06,3.28-0.14,4.87-0.23,1.87-.11,3.69-0.25,5.44-0.41s3.73-.37,5.46-0.59c1.53-.19,3-0.4,4.37-0.62l1.08-.18-3.46-5.45q-2.62.24-5.38,0.36h-0.33c-1.87.08-3.79,0.12-5.75,0.13s-3.8,0-5.75-.07S220.52,118.18,218.66,118.09Z" transform="translate(-100)" fill="url(#b)"/><path d="M178.17,112.32l1.88-2.59a12.44,12.44,0,0,1,9.13-8.3c-0.91,0-1.75-.05-2.54,0-3.33.13-5.8,1-9.31,3.58h0c1.2-2.42,2.46-3.36,4.3-3.63a10.54,10.54,0,0,0-1.33,0c-4.89.14-8.58,3.7-11.18,8.78a6.34,6.34,0,0,0-2.77-3.94c0.93,1.55,1.68,3,1.57,4.31l4.11,0.78,0.66,0.12h0.07l4.58,0.81Z" transform="translate(-100)" fill="url(#c)"/><path d="M183,114.23l-4.48-.71,4.82,7.3q3,1,6.09,1.74c0.88,0.22,1.77.42,2.67,0.62,1.06,0.22,2.16.43,3.32,0.63,1.76,0.3,3.65.58,5.65,0.81,1.77,0.2,3.63.38,5.59,0.5l0.94,0.06q2.34,0.14,4.68.2,2.77,0.08,5.5.08c1.8,0,3.58,0,5.33-.09h0.37l-4.8-7.26h-0.19l-3.55-.21-2.07-.15q-2.87-.21-5.76-0.48t-5.83-.59q-2.86-.31-5.69-0.67t-5.61-.74q-2.9-.4-5.73-0.83Z" transform="translate(-100)" fill="url(#d)"/><path d="M183.3,120.81l-4.82-7.29h0l-1.1-.18-4.72-.8-0.35-.06-1.26-.22c-14.64-2.58-25.48-5.07-27.13-5.46a2.36,2.36,0,0,0-2.15.62c9.13,2.09,17.8,3.92,25.78,5.36-0.51,1.67-2.1,3.5-4.6,5.46,2.32-1,4.45-2.08,5.51-3.68a10,10,0,0,0,.14,5,10,10,0,0,1,1.74-4.77c2.77,1.89,4.83,5.13,6.64,8.88,0,0,0-3.81-1.13-5.86l0.24,0.11a60.66,60.66,0,0,0,7,2.8Z" transform="translate(-100)" fill="url(#e)"/><path d="M218.52,117.24l5.9-8.13-0.07,0,0.28-.35,0-.05,1.72-2.38-1.72,2.38a15,15,0,0,1,3.47-3.07,3.81,3.81,0,0,1,.45-0.22h0a9.83,9.83,0,0,0-1-.31l-1-.23-0.4-.07-1.15-.18c-0.83-.11-1.8-0.21-2.91-0.27l-0.75,0-0.54,0a12.34,12.34,0,0,0-1.68.19l-0.68.15c-0.35.09-.7,0.19-1,0.31s-0.45.17-.67,0.26a14.42,14.42,0,0,0-3.11,1.87h0l0.12-.15c0.16-.2.32-0.4,0.49-0.59a12.62,12.62,0,0,1,3.74-2.78c-3.61-.19-7,0.45-9.94,2.85h0l0.38-.48,0.39-.46a11.52,11.52,0,0,1,2.37-2.07c-2.15-.45-4.18-0.79-6.09-1A49.6,49.6,0,0,0,199,102a30.14,30.14,0,0,0-7,.74c-4.66,1.1-9.63,4.08-11.93,7.15l0.07-.18-1.88,2.59,0.13,0q2.89,0.49,5.65.93l0.27,0q2.78,0.44,5.43.82,3,0.43,5.78.8,3,0.39,5.75.72t5.66,0.62l4.33,0.41,1.39,0.12,2.68,0.21,2.38,0.17,0.77,0.05h0.12Z" transform="translate(-100)" fill="url(#f)"/><path d="M248.58,108c-0.6-.22-1.24-0.42-1.93-0.6a25.67,25.67,0,0,0-2.73-.55,53.12,53.12,0,0,0-5.34-.49c-2-.09-4-0.09-5.9,0-0.62,0-1.23.07-1.81,0.13a12.14,12.14,0,0,0-6.44,2.62l-5.9,8.13q3,0.19,5.64.29c2,0.08,4,.14,5.76.16,2.08,0,4,0,5.77,0H236c2,0,3.86-.11,5.49-0.21A113.81,113.81,0,0,1,248.58,108Z" transform="translate(-100)" fill="url(#g)"/><path d="M208,106.5h0l0.38-.48Z" transform="translate(-100)" fill="#be202e"/><path d="M208,106.5h0l0.38-.48Z" transform="translate(-100)" fill="#be202e" opacity="0.35" style="isolation:isolate"/><path d="M208,106.5h0l0.38-.48Z" transform="translate(-100)" fill="url(#h)"/><path d="M213.62,107.17l0.12-.15-0.12.15h0Z" transform="translate(-100)" fill="#be202e"/><path d="M213.62,107.17l0.12-.15-0.12.15h0Z" transform="translate(-100)" fill="#be202e" opacity="0.35" style="isolation:isolate"/><path d="M213.62,107.17l0.12-.15-0.12.15h0Z" transform="translate(-100)" fill="url(#i)"/><path d="M213.63,107.16h0Z" transform="translate(-100)" fill="#be202e"/><path d="M213.63,107.16h0Z" transform="translate(-100)" fill="#be202e" opacity="0.35" style="isolation:isolate"/><path d="M213.63,107.16h0Z" transform="translate(-100)" fill="url(#j)"/><path d="M140.75,116.93c-0.22,0-2.75,0-5.57,0V104.77a42.81,42.81,0,0,1-7.9-3.15V125h48.1C164.58,122.72,152.94,120,140.75,116.93Z" transform="translate(-100)" fill="#00678c"/><path d="M183.34,86.5V43.08L174.14,43V90.47q0,8.51,6.26,8.51c3.44,0,4.74-1.32,6.16-4C183.66,94.1,183.34,91.26,183.34,86.5Z" transform="translate(-100)" fill="#00678c"/><polygon points="92.77 67.16 96.54 67.16 96.54 98.42 105.57 98.42 105.57 59.76 92.77 59.76 92.77 67.16" fill="#00678c"/><path d="M201.14,44.78a5,5,0,0,0-3.66,1.53,5.27,5.27,0,0,0,0,7.4,5.13,5.13,0,0,0,7.32,0,5.27,5.27,0,0,0,0-7.4A5,5,0,0,0,201.14,44.78Z" transform="translate(-100)" fill="#00678c"/><path d="M235.5,58.89q-7.18,0-10.86,4.28l0-3.57h-8.19V97.85h9V70.21A9.79,9.79,0,0,1,229,67.46a9.66,9.66,0,0,1,4.24-1.11q4.29,0,6.19,2.25t1.89,7.14v22.1h9V74.39q0-7.32-4-11.41T235.5,58.89Z" transform="translate(-100)" fill="#00678c"/><path d="M299.21,107a10,10,0,0,0-1.7-2.26,14.59,14.59,0,0,0-2.5-2,13.75,13.75,0,0,0-2.41-1.19,16.65,16.65,0,0,0-6.08-.95c-0.94,0-1.88.09-2.81,0.19-1.45.17-2.89,0.4-4.33,0.62-3.2.5-6.39,1.14-9.6,1.57-1,.13-2.32.27-3-0.65-0.95-1.39,1.49-2.94,2.33-3.56,1-.74,3.09-1.66,3.22-1.79,0.8,0,1,.06,1.84.13a24.07,24.07,0,0,0,13.16-2.09,20,20,0,0,0,4.52-3,15.47,15.47,0,0,0,3.32-4.23,23.12,23.12,0,0,0,1.85-5.92,28.29,28.29,0,0,0,.41-6.49,18.85,18.85,0,0,0-1.13-5.49A32.69,32.69,0,0,0,294,65.51l4.89-4.93h0V27.27H146.56q-8.34.17-13.72,5.14a16.93,16.93,0,0,0-5.56,13,20.43,20.43,0,0,0,2.85,11q2.85,4.58,10,7.92L145.84,67q7.63,3.58,9.52,6.61a12.15,12.15,0,0,1,1.89,6.56,10,10,0,0,1-3.41,7.78,13,13,0,0,1-9,3.05,23.29,23.29,0,0,1-7.17-1.31A23.93,23.93,0,0,1,131,86.38l-3.5,8.78a28.26,28.26,0,0,0,16,4.39q10.65,0,17-5.49A17,17,0,0,0,166.8,80.7q0-7.25-2.9-12t-10.1-8.08L148,57.95a41.88,41.88,0,0,1-7.36-4.15,10.16,10.16,0,0,1-2.81-3.67,11.5,11.5,0,0,1-1-4.87,9.55,9.55,0,0,1,2.81-7.11,8.73,8.73,0,0,1,6.88-3H291V57.33l-2.94,3a7.11,7.11,0,0,0-1.38-.72,24.14,24.14,0,0,0-8.24-1.71A23.45,23.45,0,0,0,270.08,59a19.33,19.33,0,0,0-6.75,4.48,20.32,20.32,0,0,0-3.76,5.45,21.88,21.88,0,0,0-1.72,6.53,21.37,21.37,0,0,0,.25,6.7,18.93,18.93,0,0,0,2.17,5.75A19.8,19.8,0,0,0,263.87,92a25,25,0,0,0,2.59,2.19c-1,.63-1.94,1.33-2.87,2-2.46,1.86-4.79,4.91-3.6,8.36s5.06,4.44,8.3,4.71a33.84,33.84,0,0,0,8.82-.68c2.19-.4,4.42-0.58,6.64-0.79,0.92-.09,1.82-0.26,2.75-0.27a5.3,5.3,0,0,1,4.29,1.62,3.34,3.34,0,0,1-.52,4.38,6.94,6.94,0,0,1-2.18,1.43,23.52,23.52,0,0,1-6,1.7h0a60.74,60.74,0,0,1-8.07.53,60,60,0,0,1-9.33-.71v0a11.41,11.41,0,0,1-3,8.47h16.52c6.42,0,11.49-1.45,15.68-4.35a17.89,17.89,0,0,0,2.37-1.94,13.74,13.74,0,0,0,1.82-2.21,13,13,0,0,0,1-1.85A8.62,8.62,0,0,0,299.21,107ZM269.78,68.58A10.8,10.8,0,0,1,278,65.27a10.22,10.22,0,0,1,7.77,3.31,11.31,11.31,0,0,1,3.11,8c0,3.66-1,7.74-2.88,10A9.94,9.94,0,0,1,278,90a10.45,10.45,0,0,1-8.27-3.48c-2-2.32-3.06-6.37-3.06-9.9A11.21,11.21,0,0,1,269.78,68.58Z" transform="translate(-100)" fill="#00678c"/></svg>