<?xml version="1.0" encoding="utf-8"?>
<!-- Generator: Adobe Illustrator 18.1.1, SVG Export Plug-In . SVG Version: 6.00 Build 0)  -->
<!DOCTYPE svg PUBLIC "-//W3C//DTD SVG 1.1//EN" "http://www.w3.org/Graphics/SVG/1.1/DTD/svg11.dtd">
<svg version="1.1" id="Layer_1" xmlns="http://www.w3.org/2000/svg" xmlns:xlink="http://www.w3.org/1999/xlink" x="0px" y="0px"
	 viewBox="0 0 68 68" enable-background="new 0 0 68 68" xml:space="preserve">
<g>
	<path fill="#FFFFFF" d="M34,26.3c-3.5,0-7,0-10.5,0c0.1,0.8,0.2,1.5,0.3,2.2c0.2,1.5,0.4,3.1,0.6,4.6c0.2,1.6,0.4,3.1,0.6,4.7
		c0.2,1.5,0.4,3,0.6,4.4c0.2,1.6,0.4,3.2,0.6,4.7c0.1,0.7,0.1,1.5,1,1.8c1.6,0.6,3.3,0.9,5,1c0.6,0,1.2,0,1.9,0c0.6,0,1.2,0,1.9,0
		c1.7,0,3.4-0.3,5-1c0.8-0.3,0.9-1,1-1.8c0.2-1.6,0.4-3.2,0.6-4.7c0.2-1.5,0.4-3,0.6-4.4c0.2-1.6,0.4-3.1,0.6-4.7
		c0.2-1.5,0.4-3.1,0.6-4.6c0.1-0.7,0.2-1.4,0.3-2.2C41,26.3,37.5,26.3,34,26.3z M29.9,46.9c-0.5,0-0.9-0.3-1-0.8L27.5,30
		c0-0.5,0.3-0.9,0.8-1c0.5,0,0.9,0.3,1,0.8L30.7,46C30.8,46.5,30.4,46.9,29.9,46.9z M34.9,46.1c0,0.5-0.4,0.9-0.9,0.9
		c-0.5,0-0.9-0.4-0.9-0.9V29.9c0-0.5,0.4-0.9,0.9-0.9c0.5,0,0.9,0.4,0.9,0.9V46.1z M39.1,46.1c0,0.5-0.5,0.9-1,0.8
		c-0.5,0-0.9-0.5-0.8-1l1.4-16.1c0-0.5,0.5-0.9,1-0.8c0.5,0,0.9,0.5,0.8,1L39.1,46.1z"/>
	<path fill="#FFFFFF" d="M43.7,23.1c-1.9-0.5-3.8-0.9-5.7-1.4c-0.2,0-0.5-0.3-0.5-0.5l0,0c-0.2-1.7-1.7-3-3.4-3
		c-1.8,0-3.2,1.3-3.4,3l0,0c0,0.2-0.3,0.4-0.5,0.5c-1.9,0.5-3.8,0.9-5.7,1.4c-1.1,0.3-1.2,0.6-1,1.5H34h10.7
		C44.9,23.7,44.7,23.4,43.7,23.1z M32.3,21.8c0-0.9,0.7-1.6,1.7-1.6c0.9,0,1.6,0.7,1.7,1.6H32.3z"/>
</g>
</svg>
