<?xml version="1.0" encoding="utf-8"?>
<!DOCTYPE svg PUBLIC "-//W3C//DTD SVG 1.1//EN" "http://www.w3.org/Graphics/SVG/1.1/DTD/svg11.dtd">
<svg version="1.1" xmlns="http://www.w3.org/2000/svg" xmlns:xlink="http://www.w3.org/1999/xlink" xml:space="preserve">
<path d="M25,50C11.2,50,0,38.8,0,25S11.2,0,25,0s25,11.2,25,25S38.8,50,25,50z"/>
<path fill="#FFFFFF" d="M25,12c-7.4,0-13.3,6-13.3,13.3c0,5.9,3.8,10.9,9.1,12.7c0.7,0.1,0.9-0.3,0.9-0.6c0-0.3,0-1.4,0-2.5
	c-3.7,0.8-4.5-1.6-4.5-1.6c-0.6-1.5-1.5-1.9-1.5-1.9c-1.2-0.8,0.1-0.8,0.1-0.8c1.3,0.1,2,1.4,2,1.4c1.2,2,3.1,1.4,3.9,1.1
	c0.1-0.9,0.5-1.4,0.8-1.8c-3-0.3-6.1-1.5-6.1-6.6c0-1.5,0.5-2.6,1.4-3.6c-0.1-0.3-0.6-1.7,0.1-3.5c0,0,1.1-0.4,3.7,1.4
	c1.1-0.3,2.2-0.4,3.3-0.4c1.1,0,2.3,0.2,3.3,0.5c2.5-1.7,3.7-1.4,3.7-1.4c0.7,1.8,0.3,3.2,0.1,3.5c0.9,0.9,1.4,2.1,1.4,3.6
	c0,5.1-3.1,6.2-6.1,6.6c0.5,0.4,0.9,1.2,0.9,2.5c0,1.8,0,3.2,0,3.7c0,0.4,0.2,0.8,0.9,0.6c5.3-1.8,9.1-6.8,9.1-12.7
	C38.3,18,32.4,12,25,12z"/>
</svg>
