<?xml version="1.0" encoding="utf-8"?>
<!-- Generator: Adobe Illustrator 19.2.1, SVG Export Plug-In . SVG Version: 6.00 Build 0)  -->
<svg version="1.1" id="Layer_1" xmlns="http://www.w3.org/2000/svg" xmlns:xlink="http://www.w3.org/1999/xlink" x="0px" y="0px"
	 viewBox="0 0 60 60" style="enable-background:new 0 0 60 60;" xml:space="preserve">
<style type="text/css">
	.st0{fill:none;}
	.st1{opacity:0.6;}
</style>
<rect class="st0" width="60" height="60"/>
<g class="st1">
	<g>
		<path d="M21.1,35.4V23.7h2.4V28c0.1-0.2,0.3-0.4,0.5-0.5c0.2-0.2,0.3-0.3,0.5-0.4s0.4-0.2,0.7-0.3s0.5-0.1,0.8-0.1
			c0.9,0,1.6,0.3,2.2,0.8c0.5,0.6,0.8,1.3,0.8,2.3v5.6h-2.4v-4.8c0-0.6-0.1-1-0.4-1.3s-0.6-0.4-1.1-0.4S24.2,29,24,29.3
			c-0.3,0.3-0.4,0.7-0.4,1.3v4.8C23.6,35.4,21.1,35.4,21.1,35.4z"/>
		<path d="M30.8,35.4v-1.9l3.7-3.1c0.4-0.3,0.7-0.5,0.9-0.8c0.2-0.2,0.4-0.5,0.6-0.7c0.2-0.2,0.3-0.4,0.3-0.6
			c0.1-0.2,0.1-0.4,0.1-0.7c0-0.5-0.1-0.8-0.4-1.1s-0.6-0.4-1.1-0.4c-0.4,0-0.8,0.1-1.2,0.4s-0.7,0.6-1.1,1.1l-1.7-1.4
			c0.3-0.4,0.6-0.7,0.8-1c0.3-0.3,0.6-0.5,0.9-0.7c0.3-0.2,0.7-0.3,1.1-0.4c0.4-0.1,0.8-0.2,1.3-0.2c0.6,0,1.1,0.1,1.6,0.2
			s0.9,0.4,1.2,0.7s0.6,0.7,0.8,1.1s0.3,0.9,0.3,1.4l0,0c0,0.5-0.1,0.9-0.2,1.3s-0.3,0.7-0.5,1s-0.5,0.7-0.9,1s-0.8,0.7-1.3,1.1
			l-1.8,1.4h4.9v2.1h-8.3V35.4z"/>
	</g>
</g>
</svg>
