<?xml version="1.0" encoding="utf-8"?>
<!-- Generator: Adobe Illustrator 19.2.1, SVG Export Plug-In . SVG Version: 6.00 Build 0)  -->
<svg version="1.1" id="Layer_1" xmlns="http://www.w3.org/2000/svg" xmlns:xlink="http://www.w3.org/1999/xlink" x="0px" y="0px"
	 viewBox="0 0 60 60" enable-background="new 0 0 60 60" xml:space="preserve">
<rect x="0" y="0" fill="none" width="60" height="60"/>
<g>
	<g>
		<path fill="#009444" d="M25.6,35.4V24.2h5.2c1.3,0,2.3,0.3,2.9,1c0.5,0.5,0.8,1.1,0.8,1.9v0c0,0.3,0,0.6-0.1,0.8
			c-0.1,0.2-0.2,0.5-0.3,0.7c-0.1,0.2-0.3,0.4-0.5,0.5c-0.2,0.1-0.4,0.3-0.6,0.4c0.7,0.2,1.2,0.6,1.5,1c0.4,0.4,0.6,1,0.6,1.8v0
			c0,0.5-0.1,1-0.3,1.3c-0.2,0.4-0.5,0.7-0.8,1c-0.4,0.3-0.8,0.4-1.3,0.6c-0.5,0.1-1.1,0.2-1.7,0.2H25.6z M28,28.7h2.3
			c0.5,0,1-0.1,1.3-0.3s0.5-0.5,0.5-0.9v0c0-0.4-0.1-0.7-0.4-0.9c-0.3-0.2-0.7-0.3-1.2-0.3H28V28.7z M28,33.2h2.9
			c0.5,0,1-0.1,1.3-0.3s0.5-0.5,0.5-0.9v0c0-0.4-0.1-0.7-0.4-0.9c-0.3-0.2-0.8-0.3-1.4-0.3H28V33.2z"/>
	</g>
</g>
</svg>
