<svg xmlns="http://www.w3.org/2000/svg" viewBox="0 0 60 60"><title>Untitled-3</title><rect width="60" height="60" fill="none"/><path d="M36.15,16.18a0.52,0.52,0,0,0-.53.53v5.45a0.52,0.52,0,0,0,.53.53,0.52,0.52,0,0,0,.53-0.53V16.72A0.52,0.52,0,0,0,36.15,16.18Z" transform="translate(0 0)" fill="#009444"/><path d="M23.85,16.18a0.52,0.52,0,0,0-.53.53v5.45a0.52,0.52,0,0,0,.53.53,0.52,0.52,0,0,0,.53-0.53V16.72A0.52,0.52,0,0,0,23.85,16.18Z" transform="translate(0 0)" fill="#009444"/><path d="M42.3,20.07H37.68v2.09a1.52,1.52,0,0,1-1.53,1.53,1.52,1.52,0,0,1-1.53-1.53V20.07H25.38v2.09a1.52,1.52,0,0,1-1.53,1.53,1.52,1.52,0,0,1-1.53-1.53V20.07H17.7a0.52,0.52,0,0,0-.53.53V43.28a0.52,0.52,0,0,0,.53.53H42.3a0.52,0.52,0,0,0,.53-0.53V20.6A0.52,0.52,0,0,0,42.3,20.07Zm-19,22.68H18.23V37.66h5.08v5.09Zm0-6.15H18.23V31.51h5.08V36.6Zm0-6.15H18.23V25.37h5.08v5.08Zm6.15,12.3H24.38V37.66h5.09v5.09Zm0-6.15H24.38V31.51h5.09V36.6Zm0-6.15H24.38V25.37h5.09v5.08Zm6.15,12.3H30.53V37.66h5.09v5.09Zm0-6.15H30.53V31.51h5.09V36.6Zm0-6.15H30.53V25.37h5.09v5.08Zm6.14,12.3H36.68V37.66h5.08v5.09Zm0-6.15H36.68V31.51h5.08V36.6Zm0-6.15H36.68V25.37h5.08v5.08Z" transform="translate(0 0)" fill="#009444"/></svg>