<?xml version="1.0" encoding="utf-8"?>
<!-- Generator: Adobe Illustrator 19.2.1, SVG Export Plug-In . SVG Version: 6.00 Build 0)  -->
<svg version="1.1" id="Layer_1" xmlns="http://www.w3.org/2000/svg" xmlns:xlink="http://www.w3.org/1999/xlink" x="0px" y="0px"
	 viewBox="0 0 60 60" style="enable-background:new 0 0 60 60;" xml:space="preserve">
<style type="text/css">
	.st0{fill:none;}
	.st1{opacity:0.6;}
</style>
<rect class="st0" width="60" height="60"/>
<g class="st1">
	<g>
		<path d="M12.1,27.1h1.4l2.8,6.9l2.8-6.9h1.3l-3.6,8.3h-1.1L12.1,27.1z"/>
		<path d="M22.4,25.3v-1.4h1.4v1.4H22.4z M22.5,35.4v-8.3h1.2v8.3H22.5z"/>
		<path d="M26,31.3c0-0.6,0.1-1.2,0.3-1.7c0.2-0.5,0.5-1,0.8-1.4c0.4-0.4,0.8-0.7,1.3-0.9c0.5-0.2,1-0.3,1.6-0.3s1.2,0.1,1.6,0.3
			c0.5,0.2,0.9,0.5,1.2,0.9s0.6,0.9,0.8,1.4s0.3,1.1,0.3,1.7c0,0.1,0,0.1,0,0.2s0,0.2,0,0.2h-6.6c0,0.4,0.1,0.8,0.3,1.2
			c0.2,0.3,0.4,0.6,0.7,0.9s0.6,0.4,0.9,0.5s0.7,0.2,1,0.2c0.6,0,1.1-0.1,1.5-0.3c0.4-0.2,0.8-0.5,1.1-0.8l0.8,0.7
			c-0.4,0.5-0.9,0.8-1.4,1.1s-1.2,0.4-2,0.4c-0.6,0-1.1-0.1-1.6-0.3s-0.9-0.5-1.3-0.9s-0.7-0.8-0.9-1.4C26.2,32.5,26,31.9,26,31.3z
			 M27.3,30.8h5.3c0-0.4-0.1-0.7-0.2-1.1s-0.3-0.6-0.5-0.9s-0.5-0.5-0.8-0.6C30.7,28.1,30.4,28,30,28s-0.7,0.1-1,0.2
			s-0.6,0.3-0.8,0.6s-0.4,0.5-0.6,0.9C27.4,30,27.3,30.4,27.3,30.8z"/>
		<path d="M35.3,27.1h1.3l2.2,6.6L41,27h1l2.2,6.7l2.2-6.6h1.3l-2.9,8.3h-1.1l-2.2-6.5l-2.2,6.5h-1.1L35.3,27.1z"/>
	</g>
</g>
</svg>
