<?xml version="1.0" encoding="utf-8"?>
<!-- Generator: Adobe Illustrator 19.2.1, SVG Export Plug-In . SVG Version: 6.00 Build 0)  -->
<svg version="1.1" id="Layer_1" xmlns="http://www.w3.org/2000/svg" xmlns:xlink="http://www.w3.org/1999/xlink" x="0px" y="0px"
	 viewBox="0 0 60 60" style="enable-background:new 0 0 60 60;" xml:space="preserve">
<style type="text/css">
	.st0{opacity:0.6;}
	.st1{fill:none;}
</style>
<g class="st0">
	<path d="M18.1,31.1H22v6.4c-0.9,0.4-2.6,0.5-4,0.5c-4.1,0-5.6-3.5-5.6-8.1s1.5-8.1,5.6-8.1c2,0,3.3,0.4,5.2,1.2v-1.7
		c-1-0.5-2.7-1.1-5.2-1.1c-5.6,0-7.4,4.3-7.4,9.6s1.8,9.6,7.4,9.6c2.6,0,4.5-0.4,5.7-1v-9.1h-5.6V31.1z M28.3,37.1V26.8h-1.7v10
		c0,2,0.9,2.8,2.8,2.8v-1.4C28.6,38.2,28.3,38,28.3,37.1L28.3,37.1z M28.7,23.1c0-0.7-0.5-1.2-1.2-1.2s-1.2,0.5-1.2,1.2
		s0.5,1.2,1.2,1.2C28.2,24.4,28.7,23.8,28.7,23.1z M35.7,32.2c-2.4-0.2-2.8-0.8-2.8-1.9c0-1.2,0.5-2.1,3-2.1c1.7,0,2.7,0.3,3.6,0.6
		v-1.5c-1.1-0.5-2.4-0.6-3.6-0.6c-3.5,0-4.7,1.9-4.7,3.7c0,1.7,0.8,3,4.4,3.3c2.5,0.2,2.8,1,2.8,2.1c0,1.2-0.7,2.3-3.3,2.3
		c-1.8,0-3-0.3-3.7-0.6V39c0.8,0.3,2.5,0.6,3.7,0.6c3.8,0,5-1.9,5-3.9C40.1,33.7,39.3,32.5,35.7,32.2L35.7,32.2L35.7,32.2z
		 M49.4,28.3v-1.4h-3.9v-4l-1.7,0.5v3.4l-2.5,0.7v0.8h2.5v8c0,2.4,1.9,3.4,4,3.4c0.3,0,0.8,0,1.1-0.1v-1.4c-0.3,0-0.7,0-1,0
		c-1.6,0-2.4-0.6-2.4-2.1v-7.8L49.4,28.3L49.4,28.3L49.4,28.3z"/>
</g>
<rect class="st1" width="60" height="60"/>
</svg>
