<?xml version="1.0" encoding="utf-8"?>
<!-- Generator: Adobe Illustrator 19.2.1, SVG Export Plug-In . SVG Version: 6.00 Build 0)  -->
<svg version="1.1" id="Layer_1" xmlns="http://www.w3.org/2000/svg" xmlns:xlink="http://www.w3.org/1999/xlink" x="0px" y="0px"
	 viewBox="0 0 60 60" enable-background="new 0 0 60 60" xml:space="preserve">
<rect x="0" y="0" fill="none" width="60" height="60"/>
<g>
	<g>
		<path fill="#009444" d="M22.7,35.4V23.7h2.4V28c0.1-0.2,0.3-0.4,0.5-0.5c0.2-0.2,0.3-0.3,0.5-0.4c0.2-0.1,0.4-0.2,0.7-0.3
			s0.5-0.1,0.8-0.1c0.9,0,1.6,0.3,2.2,0.8c0.5,0.6,0.8,1.3,0.8,2.3v5.6h-2.4v-4.8c0-0.6-0.1-1-0.4-1.3c-0.3-0.3-0.6-0.4-1.1-0.4
			s-0.8,0.1-1.1,0.4c-0.3,0.3-0.4,0.7-0.4,1.3v4.8H22.7z"/>
		<path fill="#009444" d="M32,25.1l3.2-1h1.7v11.3h-2.4v-8.8l-2,0.5L32,25.1z"/>
	</g>
</g>
</svg>
