<?xml version="1.0" encoding="utf-8"?>
<!-- Generator: Adobe Illustrator 19.2.1, SVG Export Plug-In . SVG Version: 6.00 Build 0)  -->
<svg version="1.1" id="Layer_1" xmlns="http://www.w3.org/2000/svg" xmlns:xlink="http://www.w3.org/1999/xlink" x="0px" y="0px"
	 viewBox="0 0 60 60" style="enable-background:new 0 0 60 60;" xml:space="preserve">
<style type="text/css">
	.st0{fill:none;}
	.st1{opacity:0.6;}
</style>
<rect class="st0" width="60" height="60"/>
<g class="st1">
	<g>
		<path d="M25.6,35.4V24.2h5.2c1.3,0,2.3,0.3,2.9,1c0.5,0.5,0.8,1.1,0.8,1.9l0,0c0,0.3,0,0.6-0.1,0.8c-0.1,0.2-0.2,0.5-0.3,0.7
			s-0.3,0.4-0.5,0.5s-0.4,0.3-0.6,0.4c0.7,0.2,1.2,0.6,1.5,1c0.4,0.4,0.6,1,0.6,1.8l0,0c0,0.5-0.1,1-0.3,1.3c-0.2,0.4-0.5,0.7-0.8,1
			c-0.4,0.3-0.8,0.4-1.3,0.6c-0.5,0.1-1.1,0.2-1.7,0.2C31,35.4,25.6,35.4,25.6,35.4z M28,28.7h2.3c0.5,0,1-0.1,1.3-0.3
			s0.5-0.5,0.5-0.9l0,0c0-0.4-0.1-0.7-0.4-0.9c-0.3-0.2-0.7-0.3-1.2-0.3H28V28.7z M28,33.2h2.9c0.5,0,1-0.1,1.3-0.3
			c0.3-0.2,0.5-0.5,0.5-0.9l0,0c0-0.4-0.1-0.7-0.4-0.9c-0.3-0.2-0.8-0.3-1.4-0.3H28V33.2z"/>
	</g>
</g>
</svg>
