<svg xmlns="http://www.w3.org/2000/svg" viewBox="0 0 60 60"><title>icon-code</title><rect width="60" height="60" fill="none"/><path d="M11.09,31.4v0a4.37,4.37,0,0,1,1.21-3,4.22,4.22,0,0,1,1.35-.93,4.12,4.12,0,0,1,1.68-.34,4.86,4.86,0,0,1,1.07.11,3.77,3.77,0,0,1,.88.31,4.27,4.27,0,0,1,.73.47,6.31,6.31,0,0,1,.63.57l-0.81.86a5.59,5.59,0,0,0-1.08-.88,2.67,2.67,0,0,0-1.44-.37,2.81,2.81,0,0,0-1.17.25,2.88,2.88,0,0,0-.94.68,3.18,3.18,0,0,0-.62,1,3.43,3.43,0,0,0-.23,1.25v0a3.31,3.31,0,0,0,.23,1.25,3.35,3.35,0,0,0,.64,1,2.87,2.87,0,0,0,1,.68,3,3,0,0,0,1.21.25,2.81,2.81,0,0,0,1.41-.35,4.76,4.76,0,0,0,1.11-.87l0.78,0.73a5.58,5.58,0,0,1-1.41,1.17,3.87,3.87,0,0,1-2,.46,4.1,4.1,0,0,1-1.69-.34A4.31,4.31,0,0,1,11.09,31.4Z" fill="#009444"/><path d="M20.22,31.4v0a4.37,4.37,0,0,1,.32-1.67,4.2,4.2,0,0,1,2.26-2.31,4.34,4.34,0,0,1,1.74-.34,4.27,4.27,0,0,1,1.72.34,4.37,4.37,0,0,1,1.37.93,4.12,4.12,0,0,1,.9,1.36,4.36,4.36,0,0,1,.32,1.66v0A4.25,4.25,0,0,1,28.52,33a4.43,4.43,0,0,1-.9,1.38,4.18,4.18,0,0,1-1.38.94,4.35,4.35,0,0,1-1.73.34,4.21,4.21,0,0,1-1.71-.34,4.29,4.29,0,0,1-1.36-.93,4.23,4.23,0,0,1-.9-1.36A4.28,4.28,0,0,1,20.22,31.4Zm1.27,0a3.31,3.31,0,0,0,.23,1.25,3.22,3.22,0,0,0,.64,1,3,3,0,0,0,1,.68,3,3,0,0,0,3.4-.68,3.19,3.19,0,0,0,.62-1,3.29,3.29,0,0,0,.23-1.23v0a3.33,3.33,0,0,0-.23-1.25,3.24,3.24,0,0,0-.65-1,3,3,0,0,0-1-.69,3.08,3.08,0,0,0-2.45,0,2.84,2.84,0,0,0-.95.69,3.23,3.23,0,0,0-.62,1,3.38,3.38,0,0,0-.23,1.24v0Z" fill="#009444"/><path d="M30.59,31.39v0a4.64,4.64,0,0,1,.34-1.81,4.17,4.17,0,0,1,.9-1.36,3.92,3.92,0,0,1,1.26-.85,3.76,3.76,0,0,1,1.46-.29,3.66,3.66,0,0,1,1.05.14,3.61,3.61,0,0,1,.86.38,3.68,3.68,0,0,1,.69.55,5.09,5.09,0,0,1,.55.67v-5h1.23V35.5H37.71V33.81a6.66,6.66,0,0,1-.57.71,4,4,0,0,1-.69.6,3.14,3.14,0,0,1-.85.41,3.5,3.5,0,0,1-1,.15,3.87,3.87,0,0,1-2.73-1.13,4.19,4.19,0,0,1-.9-1.34A4.59,4.59,0,0,1,30.59,31.39Zm1.27,0a3.56,3.56,0,0,0,.23,1.32,3.08,3.08,0,0,0,.63,1,2.71,2.71,0,0,0,.92.64,2.84,2.84,0,0,0,1.12.22,2.78,2.78,0,0,0,1.11-.23,3.06,3.06,0,0,0,1-.66,3.14,3.14,0,0,0,.67-1,3.31,3.31,0,0,0,.25-1.3v0a3.33,3.33,0,0,0-.25-1.3,3,3,0,0,0-.67-1,3.12,3.12,0,0,0-1-.65,2.77,2.77,0,0,0-1.11-.23,3,3,0,0,0-1.13.21,2.6,2.6,0,0,0-.92.62,3.05,3.05,0,0,0-.62,1,3.62,3.62,0,0,0-.23,1.35v0Z" fill="#009444"/><path d="M41.18,31.37a4.84,4.84,0,0,1,.29-1.69,4.14,4.14,0,0,1,.82-1.37,3.91,3.91,0,0,1,1.26-.92,4,4,0,0,1,3.22,0,3.59,3.59,0,0,1,1.22.93,4,4,0,0,1,.75,1.39A5.65,5.65,0,0,1,49,31.43v0.18a2.18,2.18,0,0,1,0,.25H42.41A3.25,3.25,0,0,0,42.73,33a2.81,2.81,0,0,0,1.55,1.39,3,3,0,0,0,1,.18,3.17,3.17,0,0,0,1.48-.32,4.51,4.51,0,0,0,1.13-.84l0.77,0.69a5.11,5.11,0,0,1-1.42,1.13,4.55,4.55,0,0,1-3.59.12,3.89,3.89,0,0,1-1.31-.88,4.19,4.19,0,0,1-.88-1.37A4.6,4.6,0,0,1,41.18,31.37Zm1.23-.5h5.33a3.89,3.89,0,0,0-.24-1.07A3,3,0,0,0,47,28.92a2.37,2.37,0,0,0-.8-0.61,2.51,2.51,0,0,0-1.08-.22,2.4,2.4,0,0,0-1,.21,2.52,2.52,0,0,0-.81.58,3.21,3.21,0,0,0-.58.89A3.76,3.76,0,0,0,42.41,30.87Z" fill="#009444"/></svg>